inDegrees=yes
name=ik_MT_012005D6_009-001_orientations
DataType=double
version=3
OpenSimVersion=4.2-2021-03-12-fcedec9
endheader
time	pelvis_tilt	pelvis_list	pelvis_rotation	pelvis_tx	pelvis_ty	pelvis_tz	hip_flexion_r	hip_adduction_r	hip_rotation_r	knee_angle_r	knee_angle_r_beta	ankle_angle_r	subtalar_angle_r	mtp_angle_r	hip_flexion_l	hip_adduction_l	hip_rotation_l	knee_angle_l	knee_angle_l_beta	ankle_angle_l	subtalar_angle_l	mtp_angle_l	lumbar_extension	lumbar_bending	lumbar_rotation	arm_flex_r	arm_add_r	arm_rot_r	elbow_flex_r	pro_sup_r	wrist_flex_r	wrist_dev_r	arm_flex_l	arm_add_l	arm_rot_l	elbow_flex_l	pro_sup_l	wrist_flex_l	wrist_dev_l
11.12999999999981	0.7035853299078095	3.471025580871823	340.1521174410319	0	0.9399999999999999	0	13.66955668001505	-17.46863995704728	-0.7018432904517734	57.93790037320087	1.011207123204807	-10.6549956740277	0	0	17.76037291329789	3.005779689429866	-4.15429641488205	14.1480094907803	0.2469293482175226	1.535634817804711	0	0	-21.55696736579014	-4.018186060185313	3.363276879855241	0	-9.049086181086153	0	63.39866871036976	43.96545827138276	0	0	0	-9.049086181086153	0	63.39866871036976	43.96545827138276	0	0
11.13999999999981	0.6426322486071923	3.310628010716206	340.328948718156	0	0.9399999999999999	0	14.48860836617278	-17.36650961007019	-0.808066410071325	57.75019331935635	1.007931017086001	-10.27436271743563	0	0	17.23581512107327	3.057376597418525	-4.155554218965827	14.18010456691172	0.2474895129696941	1.890165132315247	0	0	-21.47910310408592	-3.759823764648872	3.14807771169428	0	-9.051202913152441	0	63.40688927318871	43.96743068330196	0	0	0	-9.051202913152441	0	63.40688927318871	43.96743068330196	0	0
11.14999999999981	0.4852724118633128	3.098811316463522	340.5896174797513	0	0.9399999999999999	0	15.39749912056104	-17.09584737321006	-0.9682538790080047	57.52481704538427	1.003997459049312	-9.775045317433014	0	0	16.83675364338045	3.050407318899012	-4.131263606238494	14.25470561299438	0.2487915468492685	2.181676916926872	0	0	-21.27247784429025	-3.368766036578615	2.839858940214363	0	-9.054426368621419	0	63.41942150729603	43.9704407842026	0	0	0	-9.054426368621419	0	63.41942150729603	43.9704407842026	0	0
11.15999999999981	0.4145442880329475	2.899588289728599	340.7960741304793	0	0.9399999999999999	0	16.14991275223805	-16.76759448612465	-1.095818537911722	57.11986469415143	0.9969297072066063	-9.177581401574372	0	0	16.33724051795445	3.038067314754842	-4.202420126849151	14.29632920384315	0.2495180155560824	2.515577985474274	0	0	-21.09781858130242	-3.064140178225145	2.554609033055044	0	-9.05661322052816	0	63.42790719979971	43.97247081139766	0	0	0	-9.05661322052816	0	63.42790719979971	43.97247081139766	0	0
11.16999999999981	0.2744324363859096	2.653728996655253	341.0493510867201	0	0.9399999999999999	0	16.93754441911051	-16.27542885559843	-1.317100528724235	56.61881159203308	0.9881846808473096	-8.528572478603584	0	0	15.91013825263773	2.96228824111218	-4.250383256984354	14.34162872469677	0.2503086413445541	2.801485011783531	0	0	-20.86497060292426	-2.661672592766382	2.257148308760502	0	-9.059110668346262	0	63.43759836978667	43.9747878333577	0	0	0	-9.059110668346262	0	63.43759836978667	43.9747878333577	0	0
11.17999999999981	0.1232263059752427	2.390088176859402	341.3043077921301	0	0.9399999999999999	0	17.7165322067957	-15.70632535575983	-1.576624997140446	56.0288984548598	0.977888754302867	-7.8812046048893	0	0	15.51693537079423	2.849574217389436	-4.299150628997919	14.38600041332657	0.2510830734058138	3.065061608509815	0	0	-20.60719882357046	-2.235497512593921	1.967811668543994	0	-9.061859647820588	0	63.44826430182482	43.97733566437091	0	0	0	-9.061859647820588	0	63.44826430182482	43.97733566437091	0	0
11.18999999999981	0.01286305242995613	2.181316334528725	341.5215084067082	0	0.9399999999999999	0	18.5019814226117	-15.13147480296795	-1.78106722494301	55.38811850282316	0.9667050343590563	-7.169367400852924	0	0	15.10172664168371	2.7930490442228	-4.421500396419613	14.44770957628448	0.252160101478079	3.377985829751827	0	0	-20.34828256281178	-1.907277417311494	1.693920171564921	0	-9.078840573238022	0	63.50348110477321	43.98729202615375	0	0	0	-9.078840573238022	0	63.50348110477321	43.98729202615375	0	0
11.19999999999981	-0.163845576395909	1.863642069636116	341.7892878857592	0	0.9399999999999999	0	19.20333979179634	-14.40748584754503	-2.108690841108253	54.45502239956841	0.950419435119732	-6.56847459682851	0	0	14.67914565954251	2.602374992133115	-4.443701243274473	14.37120657151073	0.2508248721571082	3.540552652275003	0	0	-20.06876904351326	-1.394060055175982	1.408661850773474	0	-9.096095128670161	0	63.56048019926622	43.99787648259264	0	0	0	-9.096095128670161	0	63.56048019926622	43.99787648259264	0	0
11.20999999999981	-0.2110522021688823	1.754382669419911	341.9753053304449	0	0.9399999999999999	0	19.96991246990712	-13.85905049248618	-2.218898551426123	53.66195161869375	0.9365777387921066	-5.685532921475748	0	0	14.16146056957965	2.629909051719561	-4.610764679364586	14.32634911203602	0.2500419617951946	3.883353774121142	0	0	-19.81309272101302	-1.184625239418817	1.136942834598117	0	-9.110022805418211	0	63.6057402265082	44.00600369431818	0	0	0	-9.110022805418211	0	63.6057402265082	44.00600369431818	0	0
11.21999999999981	-0.3314531899704078	1.513134320210139	342.2100420454153	0	0.9399999999999999	0	20.59819313065151	-13.15356420636601	-2.48888012302432	52.44167726068052	0.9152799334671157	-5.032288262114871	0	0	13.62446890305538	2.510139587973735	-4.675285635549183	14.06408867955081	0.2454646537506233	3.9012090049999	0	0	-19.57232085637622	-0.7672540433232705	0.8709905837117792	0	-9.124145956971116	0	63.65277758341374	44.01483861633106	0	0	0	-9.124145956971116	0	63.65277758341374	44.01483861633106	0	0
11.22999999999981	-0.3683465381463855	1.433945829605004	342.3921074447883	0	0.9399999999999999	0	21.31172125670219	-12.54683211386983	-2.558325667189994	51.47803195962916	0.8984611501423976	-4.049982258780957	0	0	13.06991726445862	2.576383095519966	-4.783545380108441	13.90585423752485	0.2427029417472142	4.13901937044025	0	0	-19.33007939003135	-0.5798825438249935	0.6272776413195437	0	-9.136446426201045	0	63.69310659762687	44.0221816329213	0	0	0	-9.136446426201045	0	63.69310659762687	44.0221816329213	0	0
11.2399999999998	-0.4104335018456605	1.295352156434814	342.5853355675938	0	0.9399999999999999	0	21.92954803271365	-11.83444567363817	-2.687491111076799	50.19983763271498	0.8761524506574323	-3.338156211143202	0	0	12.44341816093323	2.593209714990253	-4.803723061005934	13.65546881128375	0.2383328916602977	4.223617597308109	0	0	-19.13380737160055	-0.2901912675474858	0.3382523655024081	0	-9.149197241439285	0	63.73567665216403	44.03018322806165	0	0	0	-9.149197241439285	0	63.73567665216403	44.03018322806165	0	0
11.2499999999998	-0.4176665660449846	1.223504743175834	342.7632054233054	0	0.9399999999999999	0	22.53237989383595	-11.13607381307515	-2.786068140692918	48.90456250075835	0.853545634885585	-2.58478985484261	0	0	11.81626715907582	2.710559255750518	-4.75270070696932	13.44223229961821	0.2346112124462667	4.42289426400465	0	0	-18.93971527653854	-0.1090423204231338	0.1119605198907912	0	-9.161477649442276	0	63.77692570186059	44.03800872780509	0	0	0	-9.161477649442276	0	63.77692570186059	44.03800872780509	0	0
11.2599999999998	-0.4407870719220435	1.159343219774462	342.9194067708486	0	0.9399999999999999	0	23.10955949850303	-10.45894181114334	-2.926502016537519	47.41180449690696	0.8274920927828802	-1.990282914124963	0	0	11.18862571962917	2.806589021649213	-4.669207411264347	13.19137144522035	0.2302328645726579	4.578656742956684	0	0	-18.71968443805295	0.07585898243773183	-0.1461286312324698	0	-9.172948084682046	0	63.81560362851663	44.0453783549466	0	0	0	-9.172948084682046	0	63.81560362851663	44.0453783549466	0	0
11.2699999999998	-0.4597468661574573	1.111636167877727	343.0748932228948	0	0.9399999999999999	0	23.61871048140498	-9.802599656353404	-3.119657009347656	45.73205318513221	0.7981749017777169	-1.48060870971905	0	0	10.55547939622346	2.939774334373344	-4.503773438130411	12.97003679041791	0.2263698460975902	4.803027115318177	0	0	-18.48010352424768	0.2314684589062504	-0.3664558037022167	0	-9.183869080798811	0	63.85242402841322	44.05237732703682	0	0	0	-9.183869080798811	0	63.85242402841322	44.05237732703682	0	0
11.2799999999998	-0.490073188943569	1.056154120216046	343.2333619751006	0	0.9399999999999999	0	24.02154468928313	-9.175854744682518	-3.391306502548899	43.79345686726837	0.7643400131639544	-1.141615472844256	0	0	9.939139001971682	3.040661480746746	-4.307500320381622	12.77727842695622	0.2230055779944279	5.039406631386312	0	0	-18.23463563421882	0.3973362016047687	-0.5891503010007315	0	-9.194627398450159	0	63.88892701989147	44.05937834978421	0	0	0	-9.194627398450159	0	63.88892701989147	44.05937834978421	0	0
11.2899999999998	-0.5228252960050944	1.00001560252275	343.3868716663288	0	0.9399999999999999	0	24.33134827168888	-8.531065325556835	-3.697593402483696	41.6562414407298	0.7270385671464413	-0.8876624185308	0	0	9.339943895846309	3.140104384676403	-4.110756436445853	12.60478154715485	0.2199949394924771	5.299150959284106	0	0	-17.95938712834064	0.5644292287363031	-0.7998857986465454	0	-9.204461026429879	0	63.92252335238983	44.06588157866847	0	0	0	-9.204461026429879	0	63.92252335238983	44.06588157866847	0	0
11.2999999999998	-0.5856920455889051	0.9574775238183031	343.545634874039	0	0.9399999999999999	0	24.59117866001598	-7.889200472578203	-4.030530388105087	39.42053887026854	0.6880181961965919	-0.644235049625293	0	0	8.799562842146383	3.23286692223325	-3.913043545117419	12.44904584880977	0.2172768387934627	5.546813748839412	0	0	-17.64256186523298	0.7223180912630874	-1.011924819520293	0	-9.212256209772823	0	63.94935283250901	44.07111596797681	0	0	0	-9.212256209772823	0	63.94935283250901	44.07111596797681	0	0
11.3099999999998	-0.6292318828720412	0.9144321898950661	343.6941114817237	0	0.9399999999999999	0	24.73549028445115	-7.235951962073482	-4.408207424484805	37.07959909379119	0.6471610895061619	-0.4308227078850883	0	0	8.253086946818627	3.327240922327394	-3.712439531728722	12.32780325394956	0.2151607563194905	5.821428089101814	0	0	-17.3311458986333	0.8746336886253375	-1.209040783301922	0	-9.217952497889717	0	63.96945068775876	44.0751698748466	0	0	0	-9.217952497889717	0	63.96945068775876	44.0751698748466	0	0
11.3199999999998	-0.6496981225303361	0.8611901417053808	343.8493691699618	0	0.9399999999999999	0	24.78339709386866	-6.593125649994755	-4.842072948411369	34.60687506287583	0.6040039136735029	-0.3697891939990973	0	0	7.692385773354022	3.408366479875578	-3.51460163705821	12.25170828136546	0.213832648503683	6.14554298879868	0	0	-17.06736790674679	1.023920387046549	-1.398953031344105	0	-9.222007626351596	0	63.98472652207153	44.07852738693519	0	0	0	-9.222007626351596	0	63.98472652207153	44.07852738693519	0	0
11.3299999999998	-0.6835914899810124	0.8400386301462288	343.9938358124683	0	0.9399999999999999	0	24.82903349469619	-5.973454139743456	-5.264536608328172	32.10763554001764	0.5603839552036554	-0.3518585407839013	0	0	7.160078247790014	3.502502285750668	-3.334128898835665	12.17825681280138	0.2125506785368148	6.44721765322344	0	0	-16.75362888546591	1.141391589536882	-1.575952016480328	0	-9.223357916995162	0	63.99138461158418	44.08040143578639	0	0	0	-9.223357916995162	0	63.99138461158418	44.08040143578639	0	0
11.3399999999998	-0.6867414940432593	0.8095947289281069	344.1407544441557	0	0.9399999999999999	0	24.81523479240976	-5.320739816598627	-5.666193282468938	29.51025927789951	0.5150511875165508	-0.4578226632502722	0	0	6.616381891222554	3.618522116954597	-3.137103130348519	12.14494632292557	0.2119693008130297	6.785853855120135	0	0	-16.49611347719917	1.260126918983532	-1.750390273558717	0	-9.222666042743221	0	63.99189442054627	44.08134046648939	0	0	0	-9.222666042743221	0	63.99189442054627	44.08134046648939	0	0
11.3499999999998	-0.6781724385271987	0.7991866461190433	344.2910320113373	0	0.9399999999999999	0	24.79798770550348	-4.691960325412436	-6.032023536978845	26.91079331973775	0.4696819477531189	-0.5359799443076417	0	0	6.064421615860667	3.737104171211465	-2.945975633627556	12.12273623627184	0.2115816616737689	7.137819312827637	0	0	-16.22345271525855	1.356546349851103	-1.920390251065103	0	-9.219594122798467	0	63.98501968104567	44.08108142641451	0	0	0	-9.219594122798467	0	63.98501968104567	44.08108142641451	0	0
